<?xml version="1.0" encoding="UTF-8" standalone="no"?>
<svg
   xmlns:dc="http://purl.org/dc/elements/1.1/"
   xmlns:cc="http://creativecommons.org/ns#"
   xmlns:rdf="http://www.w3.org/1999/02/22-rdf-syntax-ns#"
   xmlns:svg="http://www.w3.org/2000/svg"
   xmlns="http://www.w3.org/2000/svg"
   xmlns:sodipodi="http://sodipodi.sourceforge.net/DTD/sodipodi-0.dtd"
   xmlns:inkscape="http://www.inkscape.org/namespaces/inkscape"
   inkscape:version="1.0 (4035a4f, 2020-05-01)"
   sodipodi:docname="logo-bw.svg"
   xml:space="preserve"
   viewBox="0 0 494.35342 475"
   y="0px"
   x="0px"
   id="Capa_1"
   version="1.1"
   width="494.35342"
   height="475"
   inkscape:export-filename="/Users/opencode/git/github/do-not/track/pls-fck-ff/logo-bw.png"
   inkscape:export-xdpi="1000"
   inkscape:export-ydpi="1000"><metadata
   id="metadata942"><rdf:RDF><cc:Work
       rdf:about=""><dc:format>image/svg+xml</dc:format><dc:type
         rdf:resource="http://purl.org/dc/dcmitype/StillImage" /><dc:title /></cc:Work></rdf:RDF></metadata><defs
   id="defs940" /><sodipodi:namedview
   showguides="false"
   inkscape:document-rotation="0"
   inkscape:current-layer="Capa_1"
   inkscape:window-maximized="0"
   inkscape:window-y="23"
   inkscape:window-x="0"
   inkscape:cy="309.45019"
   inkscape:cx="186.51695"
   inkscape:zoom="0.80409281"
   showgrid="false"
   id="namedview938"
   inkscape:window-height="755"
   inkscape:window-width="1280"
   inkscape:pageshadow="2"
   inkscape:pageopacity="0"
   guidetolerance="10"
   gridtolerance="10"
   objecttolerance="10"
   borderopacity="1"
   bordercolor="#666666"
   pagecolor="#ffffff"
   fit-margin-top="0"
   fit-margin-left="0"
   fit-margin-right="0"
   fit-margin-bottom="0" />

















<g
   inkscape:export-ydpi="362.86899"
   inkscape:export-xdpi="362.86899"
   id="g2193"
   transform="matrix(1.0993033,0,0,1.0250897,-41.08895,-31.059689)"><g
     id="g907">
</g><g
     id="g909">
</g><g
     id="g911">
</g><g
     id="g913">
</g><g
     id="g915">
</g><g
     id="g917">
</g><g
     id="g919">
</g><g
     id="g921">
</g><g
     id="g923">
</g><g
     id="g925">
</g><g
     id="g927">
</g><g
     id="g929">
</g><g
     id="g931">
</g><g
     id="g933">
</g><g
     id="g935">
</g><g
     id="text5872-2"
     style="font-style:normal;font-variant:normal;font-weight:normal;font-stretch:normal;font-size:70.4539px;line-height:125%;font-family:Courier;-inkscape-font-specification:Courier;letter-spacing:0px;word-spacing:0px;fill:#000000;fill-opacity:1;stroke:none;stroke-width:1.76135px;stroke-linecap:butt;stroke-linejoin:miter;stroke-opacity:1"
     aria-label="do!not/track"
     transform="translate(0.415843,-361.37033)" /><text
     id="text880"
     y="256.37152"
     x="30.099928"
     style="font-style:normal;font-variant:normal;font-weight:normal;font-stretch:normal;font-size:244.38px;line-height:0;font-family:'Franklin Gothic Heavy';-inkscape-font-specification:'Franklin Gothic Heavy, Normal';font-variant-ligatures:normal;font-variant-caps:normal;font-variant-numeric:normal;font-variant-east-asian:normal;fill:#000000;fill-opacity:1;stroke:none;stroke-width:6.10949"
     xml:space="preserve"><tspan
       style="line-height:0.72"
       y="256.37152"
       x="30.099928"
       id="tspan924"
       sodipodi:role="line">FCK</tspan><tspan
       style="line-height:0.72"
       y="432.32513"
       x="30.099928"
       id="tspan926"
       sodipodi:role="line">   FF</tspan></text><rect
     y="30.299484"
     x="44.173378"
     height="53.781109"
     width="435.62357"
     id="rect928"
     style="fill:#fd0000;fill-opacity:1;stroke-width:1.10434;paint-order:markers fill stroke" /><rect
     style="fill:#fd0000;fill-opacity:1;stroke-width:1.10164;paint-order:markers fill stroke"
     id="rect928-5"
     width="433.49368"
     height="53.781109"
     x="45.023933"
     y="439.89246" /><g
     transform="matrix(0.65085466,0,0,0.65085466,48.277956,268.53959)"
     id="elements"><path
       style="fill:#000000"
       d="M 0,0 H 10 V 10 H 0 Z M 10,0 H 20 V 10 H 10 Z M 20,0 H 30 V 10 H 20 Z M 30,0 H 40 V 10 H 30 Z M 40,0 H 50 V 10 H 40 Z M 50,0 H 60 V 10 H 50 Z M 60,0 H 70 V 10 H 60 Z m 40,0 h 10 v 10 h -10 z m 20,0 h 10 v 10 h -10 z m 40,0 h 10 v 10 h -10 z m 20,0 h 10 v 10 h -10 z m 10,0 h 10 v 10 h -10 z m 10,0 h 10 v 10 h -10 z m 10,0 h 10 v 10 h -10 z m 10,0 h 10 v 10 h -10 z m 10,0 h 10 v 10 h -10 z m 10,0 h 10 V 10 H 240 Z M 0,10 H 10 V 20 H 0 Z m 60,0 H 70 V 20 H 60 Z m 20,0 H 90 V 20 H 80 Z m 20,0 h 10 v 10 h -10 z m 30,0 h 10 v 10 h -10 z m 10,0 h 10 v 10 h -10 z m 10,0 h 10 v 10 h -10 z m 30,0 h 10 v 10 h -10 z m 60,0 h 10 V 20 H 240 Z M 0,20 H 10 V 30 H 0 Z m 20,0 H 30 V 30 H 20 Z m 10,0 H 40 V 30 H 30 Z m 10,0 H 50 V 30 H 40 Z m 20,0 H 70 V 30 H 60 Z m 60,0 h 10 v 10 h -10 z m 20,0 h 10 v 10 h -10 z m 40,0 h 10 v 10 h -10 z m 20,0 h 10 v 10 h -10 z m 10,0 h 10 v 10 h -10 z m 10,0 h 10 v 10 h -10 z m 20,0 h 10 V 30 H 240 Z M 0,30 H 10 V 40 H 0 Z m 20,0 H 30 V 40 H 20 Z m 10,0 H 40 V 40 H 30 Z m 10,0 H 50 V 40 H 40 Z m 20,0 H 70 V 40 H 60 Z m 20,0 H 90 V 40 H 80 Z m 10,0 h 10 V 40 H 90 Z m 10,0 h 10 v 10 h -10 z m 20,0 h 10 v 10 h -10 z m 10,0 h 10 v 10 h -10 z m 20,0 h 10 v 10 h -10 z m 10,0 h 10 v 10 h -10 z m 20,0 h 10 v 10 h -10 z m 20,0 h 10 v 10 h -10 z m 10,0 h 10 v 10 h -10 z m 10,0 h 10 v 10 h -10 z m 20,0 h 10 V 40 H 240 Z M 0,40 H 10 V 50 H 0 Z m 20,0 H 30 V 50 H 20 Z m 10,0 H 40 V 50 H 30 Z m 10,0 H 50 V 50 H 40 Z m 20,0 H 70 V 50 H 60 Z m 30,0 h 10 V 50 H 90 Z m 40,0 h 10 v 10 h -10 z m 30,0 h 10 v 10 h -10 z m 20,0 h 10 v 10 h -10 z m 20,0 h 10 v 10 h -10 z m 10,0 h 10 v 10 h -10 z m 10,0 h 10 v 10 h -10 z m 20,0 h 10 V 50 H 240 Z M 0,50 H 10 V 60 H 0 Z m 60,0 H 70 V 60 H 60 Z m 20,0 H 90 V 60 H 80 Z m 10,0 h 10 V 60 H 90 Z m 20,0 h 10 v 10 h -10 z m 10,0 h 10 v 10 h -10 z m 10,0 h 10 v 10 h -10 z m 10,0 h 10 v 10 h -10 z m 10,0 h 10 v 10 h -10 z m 10,0 h 10 v 10 h -10 z m 20,0 h 10 v 10 h -10 z m 60,0 h 10 V 60 H 240 Z M 0,60 H 10 V 70 H 0 Z m 10,0 H 20 V 70 H 10 Z m 10,0 H 30 V 70 H 20 Z m 10,0 H 40 V 70 H 30 Z m 10,0 H 50 V 70 H 40 Z m 10,0 H 60 V 70 H 50 Z m 10,0 H 70 V 70 H 60 Z m 20,0 H 90 V 70 H 80 Z m 20,0 h 10 v 10 h -10 z m 20,0 h 10 v 10 h -10 z m 20,0 h 10 v 10 h -10 z m 20,0 h 10 v 10 h -10 z m 20,0 h 10 v 10 h -10 z m 10,0 h 10 v 10 h -10 z m 10,0 h 10 v 10 h -10 z m 10,0 h 10 v 10 h -10 z m 10,0 h 10 v 10 h -10 z m 10,0 h 10 v 10 h -10 z m 10,0 h 10 V 70 H 240 Z M 90,70 h 10 V 80 H 90 Z m 10,0 h 10 v 10 h -10 z m 10,0 h 10 v 10 h -10 z m 30,0 h 10 v 10 h -10 z m 20,0 h 10 V 80 H 160 Z M 0,80 H 10 V 90 H 0 Z m 10,0 H 20 V 90 H 10 Z m 10,0 H 30 V 90 H 20 Z m 10,0 H 40 V 90 H 30 Z m 10,0 H 50 V 90 H 40 Z m 20,0 H 70 V 90 H 60 Z m 10,0 H 80 V 90 H 70 Z m 10,0 H 90 V 90 H 80 Z m 10,0 h 10 V 90 H 90 Z m 20,0 h 10 v 10 h -10 z m 20,0 h 10 v 10 h -10 z m 10,0 h 10 v 10 h -10 z m 30,0 h 10 v 10 h -10 z m 20,0 h 10 v 10 h -10 z m 20,0 h 10 v 10 h -10 z m 20,0 h 10 V 90 H 230 Z M 10,90 h 10 v 10 H 10 Z m 20,0 h 10 v 10 H 30 Z m 20,0 h 10 v 10 H 50 Z m 50,0 h 10 v 10 h -10 z m 20,0 h 10 v 10 h -10 z m 20,0 h 10 v 10 h -10 z m 20,0 h 10 v 10 h -10 z m 30,0 h 10 v 10 h -10 z m 40,0 h 10 v 10 H 230 Z M 0,100 h 10 v 10 H 0 Z m 10,0 h 10 v 10 H 10 Z m 10,0 h 10 v 10 H 20 Z m 20,0 h 10 v 10 H 40 Z m 10,0 h 10 v 10 H 50 Z m 10,0 h 10 v 10 H 60 Z m 40,0 h 10 v 10 h -10 z m 40,0 h 10 v 10 h -10 z m 10,0 h 10 v 10 h -10 z m 20,0 h 10 v 10 h -10 z m 40,0 h 10 v 10 h -10 z m 20,0 h 10 v 10 h -10 z m 10,0 h 10 v 10 H 240 Z M 20,110 h 10 v 10 H 20 Z m 10,0 h 10 v 10 H 30 Z m 20,0 h 10 v 10 H 50 Z m 30,0 h 10 v 10 H 80 Z m 40,0 h 10 v 10 h -10 z m 40,0 h 10 v 10 h -10 z m 10,0 h 10 v 10 h -10 z m 20,0 h 10 v 10 h -10 z m 50,0 h 10 v 10 H 240 Z M 0,120 h 10 v 10 H 0 Z m 10,0 h 10 v 10 H 10 Z m 10,0 h 10 v 10 H 20 Z m 20,0 h 10 v 10 H 40 Z m 20,0 h 10 v 10 H 60 Z m 30,0 h 10 v 10 H 90 Z m 10,0 h 10 v 10 h -10 z m 20,0 h 10 v 10 h -10 z m 10,0 h 10 v 10 h -10 z m 10,0 h 10 v 10 h -10 z m 40,0 h 10 v 10 h -10 z m 20,0 h 10 v 10 h -10 z m 20,0 h 10 v 10 h -10 z m 10,0 h 10 v 10 h -10 z m 10,0 h 10 v 10 H 240 Z M 0,130 h 10 v 10 H 0 Z m 30,0 h 10 v 10 H 30 Z m 50,0 h 10 v 10 H 80 Z m 10,0 h 10 v 10 H 90 Z m 50,0 h 10 v 10 h -10 z m 50,0 h 10 v 10 h -10 z m 20,0 h 10 v 10 h -10 z m 20,0 h 10 v 10 H 230 Z M 0,140 h 10 v 10 H 0 Z m 40,0 h 10 v 10 H 40 Z m 10,0 h 10 v 10 H 50 Z m 10,0 h 10 v 10 H 60 Z m 10,0 h 10 v 10 H 70 Z m 20,0 h 10 v 10 H 90 Z m 10,0 h 10 v 10 h -10 z m 10,0 h 10 v 10 h -10 z m 10,0 h 10 v 10 h -10 z m 10,0 h 10 v 10 h -10 z m 20,0 h 10 v 10 h -10 z m 20,0 h 10 v 10 h -10 z m 20,0 h 10 v 10 h -10 z m 10,0 h 10 v 10 h -10 z m 10,0 h 10 v 10 h -10 z m 20,0 h 10 v 10 h -10 z m 10,0 h 10 v 10 H 240 Z M 0,150 h 10 v 10 H 0 Z m 30,0 h 10 v 10 H 30 Z m 20,0 h 10 v 10 H 50 Z m 40,0 h 10 v 10 H 90 Z m 20,0 h 10 v 10 h -10 z m 40,0 h 10 v 10 h -10 z m 10,0 h 10 v 10 h -10 z m 10,0 h 10 v 10 h -10 z m 10,0 h 10 v 10 h -10 z m 10,0 h 10 v 10 h -10 z m 10,0 h 10 v 10 h -10 z m 40,0 h 10 v 10 H 240 Z M 0,160 h 10 v 10 H 0 Z m 20,0 h 10 v 10 H 20 Z m 30,0 h 10 v 10 H 50 Z m 10,0 h 10 v 10 H 60 Z m 40,0 h 10 v 10 h -10 z m 10,0 h 10 v 10 h -10 z m 10,0 h 10 v 10 h -10 z m 10,0 h 10 v 10 h -10 z m 10,0 h 10 v 10 h -10 z m 10,0 h 10 v 10 h -10 z m 10,0 h 10 v 10 h -10 z m 10,0 h 10 v 10 h -10 z m 10,0 h 10 v 10 h -10 z m 10,0 h 10 v 10 h -10 z m 10,0 h 10 v 10 h -10 z m 20,0 h 10 v 10 H 220 Z M 80,170 h 10 v 10 H 80 Z m 20,0 h 10 v 10 h -10 z m 20,0 h 10 v 10 h -10 z m 40,0 h 10 v 10 h -10 z m 40,0 h 10 v 10 h -10 z m 10,0 h 10 v 10 H 210 Z M 0,180 h 10 v 10 H 0 Z m 10,0 h 10 v 10 H 10 Z m 10,0 h 10 v 10 H 20 Z m 10,0 h 10 v 10 H 30 Z m 10,0 h 10 v 10 H 40 Z m 10,0 h 10 v 10 H 50 Z m 10,0 h 10 v 10 H 60 Z m 20,0 h 10 v 10 H 80 Z m 80,0 h 10 v 10 h -10 z m 20,0 h 10 v 10 h -10 z m 20,0 h 10 v 10 h -10 z m 20,0 h 10 v 10 h -10 z m 10,0 h 10 v 10 h -10 z m 10,0 h 10 v 10 H 240 Z M 0,190 h 10 v 10 H 0 Z m 60,0 h 10 v 10 H 60 Z m 30,0 h 10 v 10 H 90 Z m 20,0 h 10 v 10 h -10 z m 30,0 h 10 v 10 h -10 z m 20,0 h 10 v 10 h -10 z m 40,0 h 10 v 10 h -10 z m 10,0 h 10 v 10 h -10 z m 20,0 h 10 v 10 h -10 z m 10,0 h 10 v 10 H 240 Z M 0,200 h 10 v 10 H 0 Z m 20,0 h 10 v 10 H 20 Z m 10,0 h 10 v 10 H 30 Z m 10,0 h 10 v 10 H 40 Z m 20,0 h 10 v 10 H 60 Z m 20,0 h 10 v 10 H 80 Z m 30,0 h 10 v 10 h -10 z m 10,0 h 10 v 10 h -10 z m 10,0 h 10 v 10 h -10 z m 10,0 h 10 v 10 h -10 z m 10,0 h 10 v 10 h -10 z m 10,0 h 10 v 10 h -10 z m 10,0 h 10 v 10 h -10 z m 10,0 h 10 v 10 h -10 z m 10,0 h 10 v 10 h -10 z m 10,0 h 10 v 10 h -10 z m 20,0 h 10 v 10 H 220 Z M 0,210 h 10 v 10 H 0 Z m 20,0 h 10 v 10 H 20 Z m 10,0 h 10 v 10 H 30 Z m 10,0 h 10 v 10 H 40 Z m 20,0 h 10 v 10 H 60 Z m 20,0 h 10 v 10 H 80 Z m 10,0 h 10 v 10 H 90 Z m 20,0 h 10 v 10 h -10 z m 10,0 h 10 v 10 h -10 z m 40,0 h 10 v 10 h -10 z m 10,0 h 10 v 10 h -10 z m 10,0 h 10 v 10 h -10 z m 20,0 h 10 v 10 h -10 z m 10,0 h 10 v 10 h -10 z m 10,0 h 10 v 10 h -10 z m 10,0 h 10 v 10 h -10 z m 10,0 h 10 v 10 H 240 Z M 0,220 h 10 v 10 H 0 Z m 20,0 h 10 v 10 H 20 Z m 10,0 h 10 v 10 H 30 Z m 10,0 h 10 v 10 H 40 Z m 20,0 h 10 v 10 H 60 Z m 20,0 h 10 v 10 H 80 Z m 10,0 h 10 v 10 H 90 Z m 40,0 h 10 v 10 h -10 z m 30,0 h 10 v 10 h -10 z m 50,0 h 10 v 10 h -10 z m 10,0 h 10 v 10 h -10 z m 20,0 h 10 v 10 H 240 Z M 0,230 h 10 v 10 H 0 Z m 60,0 h 10 v 10 H 60 Z m 20,0 h 10 v 10 H 80 Z m 20,0 h 10 v 10 h -10 z m 10,0 h 10 v 10 h -10 z m 10,0 h 10 v 10 h -10 z m 20,0 h 10 v 10 h -10 z m 10,0 h 10 v 10 h -10 z m 10,0 h 10 v 10 h -10 z m 10,0 h 10 v 10 h -10 z m 20,0 h 10 v 10 h -10 z m 10,0 h 10 v 10 h -10 z m 10,0 h 10 v 10 h -10 z m 30,0 h 10 v 10 H 240 Z M 0,240 h 10 v 10 H 0 Z m 10,0 h 10 v 10 H 10 Z m 10,0 h 10 v 10 H 20 Z m 10,0 h 10 v 10 H 30 Z m 10,0 h 10 v 10 H 40 Z m 10,0 h 10 v 10 H 50 Z m 10,0 h 10 v 10 H 60 Z m 20,0 h 10 v 10 H 80 Z m 10,0 h 10 v 10 H 90 Z m 20,0 h 10 v 10 h -10 z m 10,0 h 10 v 10 h -10 z m 10,0 h 10 v 10 h -10 z m 10,0 h 10 v 10 h -10 z m 50,0 h 10 v 10 h -10 z m 10,0 h 10 v 10 h -10 z m 10,0 h 10 v 10 h -10 z m 10,0 h 10 v 10 h -10 z m 10,0 h 10 v 10 h -10 z m 10,0 h 10 v 10 h -10 z"
       id="path1563" /></g></g></svg>
