<?xml version="1.0" standalone="no"?>
<svg xmlns="http://www.w3.org/2000/svg" version="1.1" width="231" height="231">
	<!-- Created with https://api.qrserver.com (QR Code API, see goQR.me/api for information) -->
	<title>QR Code</title>
	<desc>https://do-not.org/track/</desc>
	<rect style="fill:rgb(255, 255, 255);fill-opacity:1" x="0" y="0" width="231" height="231" />
	<g id="elements">
		<path style="fill:rgb(0, 0, 0)" d="M 0,0 l 7,0 0,7 -7,0 z M 7,0 l 7,0 0,7 -7,0 z M 14,0 l 7,0 0,7 -7,0 z M 21,0 l 7,0 0,7 -7,0 z M 28,0 l 7,0 0,7 -7,0 z M 35,0 l 7,0 0,7 -7,0 z M 42,0 l 7,0 0,7 -7,0 z M 56,0 l 7,0 0,7 -7,0 z M 70,0 l 7,0 0,7 -7,0 z M 105,0 l 7,0 0,7 -7,0 z M 112,0 l 7,0 0,7 -7,0 z M 119,0 l 7,0 0,7 -7,0 z M 161,0 l 7,0 0,7 -7,0 z M 168,0 l 7,0 0,7 -7,0 z M 182,0 l 7,0 0,7 -7,0 z M 189,0 l 7,0 0,7 -7,0 z M 196,0 l 7,0 0,7 -7,0 z M 203,0 l 7,0 0,7 -7,0 z M 210,0 l 7,0 0,7 -7,0 z M 217,0 l 7,0 0,7 -7,0 z M 224,0 l 7,0 0,7 -7,0 z M 0,7 l 7,0 0,7 -7,0 z M 42,7 l 7,0 0,7 -7,0 z M 56,7 l 7,0 0,7 -7,0 z M 63,7 l 7,0 0,7 -7,0 z M 84,7 l 7,0 0,7 -7,0 z M 112,7 l 7,0 0,7 -7,0 z M 119,7 l 7,0 0,7 -7,0 z M 126,7 l 7,0 0,7 -7,0 z M 154,7 l 7,0 0,7 -7,0 z M 168,7 l 7,0 0,7 -7,0 z M 182,7 l 7,0 0,7 -7,0 z M 224,7 l 7,0 0,7 -7,0 z M 0,14 l 7,0 0,7 -7,0 z M 14,14 l 7,0 0,7 -7,0 z M 21,14 l 7,0 0,7 -7,0 z M 28,14 l 7,0 0,7 -7,0 z M 42,14 l 7,0 0,7 -7,0 z M 56,14 l 7,0 0,7 -7,0 z M 63,14 l 7,0 0,7 -7,0 z M 84,14 l 7,0 0,7 -7,0 z M 91,14 l 7,0 0,7 -7,0 z M 105,14 l 7,0 0,7 -7,0 z M 112,14 l 7,0 0,7 -7,0 z M 126,14 l 7,0 0,7 -7,0 z M 147,14 l 7,0 0,7 -7,0 z M 161,14 l 7,0 0,7 -7,0 z M 168,14 l 7,0 0,7 -7,0 z M 182,14 l 7,0 0,7 -7,0 z M 196,14 l 7,0 0,7 -7,0 z M 203,14 l 7,0 0,7 -7,0 z M 210,14 l 7,0 0,7 -7,0 z M 224,14 l 7,0 0,7 -7,0 z M 0,21 l 7,0 0,7 -7,0 z M 14,21 l 7,0 0,7 -7,0 z M 21,21 l 7,0 0,7 -7,0 z M 28,21 l 7,0 0,7 -7,0 z M 42,21 l 7,0 0,7 -7,0 z M 84,21 l 7,0 0,7 -7,0 z M 105,21 l 7,0 0,7 -7,0 z M 133,21 l 7,0 0,7 -7,0 z M 154,21 l 7,0 0,7 -7,0 z M 161,21 l 7,0 0,7 -7,0 z M 168,21 l 7,0 0,7 -7,0 z M 182,21 l 7,0 0,7 -7,0 z M 196,21 l 7,0 0,7 -7,0 z M 203,21 l 7,0 0,7 -7,0 z M 210,21 l 7,0 0,7 -7,0 z M 224,21 l 7,0 0,7 -7,0 z M 0,28 l 7,0 0,7 -7,0 z M 14,28 l 7,0 0,7 -7,0 z M 21,28 l 7,0 0,7 -7,0 z M 28,28 l 7,0 0,7 -7,0 z M 42,28 l 7,0 0,7 -7,0 z M 63,28 l 7,0 0,7 -7,0 z M 91,28 l 7,0 0,7 -7,0 z M 112,28 l 7,0 0,7 -7,0 z M 119,28 l 7,0 0,7 -7,0 z M 126,28 l 7,0 0,7 -7,0 z M 182,28 l 7,0 0,7 -7,0 z M 196,28 l 7,0 0,7 -7,0 z M 203,28 l 7,0 0,7 -7,0 z M 210,28 l 7,0 0,7 -7,0 z M 224,28 l 7,0 0,7 -7,0 z M 0,35 l 7,0 0,7 -7,0 z M 42,35 l 7,0 0,7 -7,0 z M 56,35 l 7,0 0,7 -7,0 z M 63,35 l 7,0 0,7 -7,0 z M 77,35 l 7,0 0,7 -7,0 z M 91,35 l 7,0 0,7 -7,0 z M 98,35 l 7,0 0,7 -7,0 z M 105,35 l 7,0 0,7 -7,0 z M 126,35 l 7,0 0,7 -7,0 z M 161,35 l 7,0 0,7 -7,0 z M 168,35 l 7,0 0,7 -7,0 z M 182,35 l 7,0 0,7 -7,0 z M 224,35 l 7,0 0,7 -7,0 z M 0,42 l 7,0 0,7 -7,0 z M 7,42 l 7,0 0,7 -7,0 z M 14,42 l 7,0 0,7 -7,0 z M 21,42 l 7,0 0,7 -7,0 z M 28,42 l 7,0 0,7 -7,0 z M 35,42 l 7,0 0,7 -7,0 z M 42,42 l 7,0 0,7 -7,0 z M 56,42 l 7,0 0,7 -7,0 z M 70,42 l 7,0 0,7 -7,0 z M 84,42 l 7,0 0,7 -7,0 z M 98,42 l 7,0 0,7 -7,0 z M 112,42 l 7,0 0,7 -7,0 z M 126,42 l 7,0 0,7 -7,0 z M 140,42 l 7,0 0,7 -7,0 z M 154,42 l 7,0 0,7 -7,0 z M 168,42 l 7,0 0,7 -7,0 z M 182,42 l 7,0 0,7 -7,0 z M 189,42 l 7,0 0,7 -7,0 z M 196,42 l 7,0 0,7 -7,0 z M 203,42 l 7,0 0,7 -7,0 z M 210,42 l 7,0 0,7 -7,0 z M 217,42 l 7,0 0,7 -7,0 z M 224,42 l 7,0 0,7 -7,0 z M 56,49 l 7,0 0,7 -7,0 z M 63,49 l 7,0 0,7 -7,0 z M 70,49 l 7,0 0,7 -7,0 z M 91,49 l 7,0 0,7 -7,0 z M 98,49 l 7,0 0,7 -7,0 z M 105,49 l 7,0 0,7 -7,0 z M 119,49 l 7,0 0,7 -7,0 z M 133,49 l 7,0 0,7 -7,0 z M 140,49 l 7,0 0,7 -7,0 z M 147,49 l 7,0 0,7 -7,0 z M 154,49 l 7,0 0,7 -7,0 z M 161,49 l 7,0 0,7 -7,0 z M 14,56 l 7,0 0,7 -7,0 z M 21,56 l 7,0 0,7 -7,0 z M 28,56 l 7,0 0,7 -7,0 z M 42,56 l 7,0 0,7 -7,0 z M 56,56 l 7,0 0,7 -7,0 z M 63,56 l 7,0 0,7 -7,0 z M 70,56 l 7,0 0,7 -7,0 z M 77,56 l 7,0 0,7 -7,0 z M 84,56 l 7,0 0,7 -7,0 z M 98,56 l 7,0 0,7 -7,0 z M 119,56 l 7,0 0,7 -7,0 z M 126,56 l 7,0 0,7 -7,0 z M 140,56 l 7,0 0,7 -7,0 z M 161,56 l 7,0 0,7 -7,0 z M 168,56 l 7,0 0,7 -7,0 z M 175,56 l 7,0 0,7 -7,0 z M 182,56 l 7,0 0,7 -7,0 z M 189,56 l 7,0 0,7 -7,0 z M 210,56 l 7,0 0,7 -7,0 z M 217,56 l 7,0 0,7 -7,0 z M 224,56 l 7,0 0,7 -7,0 z M 0,63 l 7,0 0,7 -7,0 z M 21,63 l 7,0 0,7 -7,0 z M 28,63 l 7,0 0,7 -7,0 z M 35,63 l 7,0 0,7 -7,0 z M 77,63 l 7,0 0,7 -7,0 z M 84,63 l 7,0 0,7 -7,0 z M 98,63 l 7,0 0,7 -7,0 z M 119,63 l 7,0 0,7 -7,0 z M 133,63 l 7,0 0,7 -7,0 z M 140,63 l 7,0 0,7 -7,0 z M 147,63 l 7,0 0,7 -7,0 z M 161,63 l 7,0 0,7 -7,0 z M 175,63 l 7,0 0,7 -7,0 z M 182,63 l 7,0 0,7 -7,0 z M 203,63 l 7,0 0,7 -7,0 z M 210,63 l 7,0 0,7 -7,0 z M 224,63 l 7,0 0,7 -7,0 z M 14,70 l 7,0 0,7 -7,0 z M 21,70 l 7,0 0,7 -7,0 z M 28,70 l 7,0 0,7 -7,0 z M 35,70 l 7,0 0,7 -7,0 z M 42,70 l 7,0 0,7 -7,0 z M 56,70 l 7,0 0,7 -7,0 z M 70,70 l 7,0 0,7 -7,0 z M 77,70 l 7,0 0,7 -7,0 z M 98,70 l 7,0 0,7 -7,0 z M 112,70 l 7,0 0,7 -7,0 z M 126,70 l 7,0 0,7 -7,0 z M 133,70 l 7,0 0,7 -7,0 z M 147,70 l 7,0 0,7 -7,0 z M 175,70 l 7,0 0,7 -7,0 z M 182,70 l 7,0 0,7 -7,0 z M 189,70 l 7,0 0,7 -7,0 z M 203,70 l 7,0 0,7 -7,0 z M 217,70 l 7,0 0,7 -7,0 z M 0,77 l 7,0 0,7 -7,0 z M 14,77 l 7,0 0,7 -7,0 z M 21,77 l 7,0 0,7 -7,0 z M 28,77 l 7,0 0,7 -7,0 z M 49,77 l 7,0 0,7 -7,0 z M 56,77 l 7,0 0,7 -7,0 z M 77,77 l 7,0 0,7 -7,0 z M 126,77 l 7,0 0,7 -7,0 z M 140,77 l 7,0 0,7 -7,0 z M 147,77 l 7,0 0,7 -7,0 z M 154,77 l 7,0 0,7 -7,0 z M 161,77 l 7,0 0,7 -7,0 z M 168,77 l 7,0 0,7 -7,0 z M 182,77 l 7,0 0,7 -7,0 z M 210,77 l 7,0 0,7 -7,0 z M 0,84 l 7,0 0,7 -7,0 z M 42,84 l 7,0 0,7 -7,0 z M 49,84 l 7,0 0,7 -7,0 z M 63,84 l 7,0 0,7 -7,0 z M 70,84 l 7,0 0,7 -7,0 z M 119,84 l 7,0 0,7 -7,0 z M 126,84 l 7,0 0,7 -7,0 z M 140,84 l 7,0 0,7 -7,0 z M 147,84 l 7,0 0,7 -7,0 z M 168,84 l 7,0 0,7 -7,0 z M 175,84 l 7,0 0,7 -7,0 z M 217,84 l 7,0 0,7 -7,0 z M 0,91 l 7,0 0,7 -7,0 z M 7,91 l 7,0 0,7 -7,0 z M 14,91 l 7,0 0,7 -7,0 z M 49,91 l 7,0 0,7 -7,0 z M 70,91 l 7,0 0,7 -7,0 z M 77,91 l 7,0 0,7 -7,0 z M 119,91 l 7,0 0,7 -7,0 z M 133,91 l 7,0 0,7 -7,0 z M 154,91 l 7,0 0,7 -7,0 z M 161,91 l 7,0 0,7 -7,0 z M 168,91 l 7,0 0,7 -7,0 z M 182,91 l 7,0 0,7 -7,0 z M 189,91 l 7,0 0,7 -7,0 z M 210,91 l 7,0 0,7 -7,0 z M 224,91 l 7,0 0,7 -7,0 z M 0,98 l 7,0 0,7 -7,0 z M 14,98 l 7,0 0,7 -7,0 z M 35,98 l 7,0 0,7 -7,0 z M 42,98 l 7,0 0,7 -7,0 z M 56,98 l 7,0 0,7 -7,0 z M 70,98 l 7,0 0,7 -7,0 z M 112,98 l 7,0 0,7 -7,0 z M 126,98 l 7,0 0,7 -7,0 z M 133,98 l 7,0 0,7 -7,0 z M 154,98 l 7,0 0,7 -7,0 z M 168,98 l 7,0 0,7 -7,0 z M 203,98 l 7,0 0,7 -7,0 z M 210,98 l 7,0 0,7 -7,0 z M 217,98 l 7,0 0,7 -7,0 z M 35,105 l 7,0 0,7 -7,0 z M 49,105 l 7,0 0,7 -7,0 z M 70,105 l 7,0 0,7 -7,0 z M 119,105 l 7,0 0,7 -7,0 z M 126,105 l 7,0 0,7 -7,0 z M 133,105 l 7,0 0,7 -7,0 z M 140,105 l 7,0 0,7 -7,0 z M 147,105 l 7,0 0,7 -7,0 z M 154,105 l 7,0 0,7 -7,0 z M 182,105 l 7,0 0,7 -7,0 z M 189,105 l 7,0 0,7 -7,0 z M 210,105 l 7,0 0,7 -7,0 z M 217,105 l 7,0 0,7 -7,0 z M 0,112 l 7,0 0,7 -7,0 z M 14,112 l 7,0 0,7 -7,0 z M 28,112 l 7,0 0,7 -7,0 z M 35,112 l 7,0 0,7 -7,0 z M 42,112 l 7,0 0,7 -7,0 z M 49,112 l 7,0 0,7 -7,0 z M 56,112 l 7,0 0,7 -7,0 z M 91,112 l 7,0 0,7 -7,0 z M 105,112 l 7,0 0,7 -7,0 z M 112,112 l 7,0 0,7 -7,0 z M 126,112 l 7,0 0,7 -7,0 z M 175,112 l 7,0 0,7 -7,0 z M 196,112 l 7,0 0,7 -7,0 z M 203,112 l 7,0 0,7 -7,0 z M 210,112 l 7,0 0,7 -7,0 z M 224,112 l 7,0 0,7 -7,0 z M 0,119 l 7,0 0,7 -7,0 z M 14,119 l 7,0 0,7 -7,0 z M 28,119 l 7,0 0,7 -7,0 z M 35,119 l 7,0 0,7 -7,0 z M 49,119 l 7,0 0,7 -7,0 z M 56,119 l 7,0 0,7 -7,0 z M 63,119 l 7,0 0,7 -7,0 z M 70,119 l 7,0 0,7 -7,0 z M 77,119 l 7,0 0,7 -7,0 z M 84,119 l 7,0 0,7 -7,0 z M 91,119 l 7,0 0,7 -7,0 z M 98,119 l 7,0 0,7 -7,0 z M 119,119 l 7,0 0,7 -7,0 z M 133,119 l 7,0 0,7 -7,0 z M 140,119 l 7,0 0,7 -7,0 z M 161,119 l 7,0 0,7 -7,0 z M 168,119 l 7,0 0,7 -7,0 z M 182,119 l 7,0 0,7 -7,0 z M 7,126 l 7,0 0,7 -7,0 z M 28,126 l 7,0 0,7 -7,0 z M 42,126 l 7,0 0,7 -7,0 z M 49,126 l 7,0 0,7 -7,0 z M 63,126 l 7,0 0,7 -7,0 z M 84,126 l 7,0 0,7 -7,0 z M 98,126 l 7,0 0,7 -7,0 z M 105,126 l 7,0 0,7 -7,0 z M 112,126 l 7,0 0,7 -7,0 z M 119,126 l 7,0 0,7 -7,0 z M 126,126 l 7,0 0,7 -7,0 z M 154,126 l 7,0 0,7 -7,0 z M 175,126 l 7,0 0,7 -7,0 z M 182,126 l 7,0 0,7 -7,0 z M 189,126 l 7,0 0,7 -7,0 z M 210,126 l 7,0 0,7 -7,0 z M 217,126 l 7,0 0,7 -7,0 z M 224,126 l 7,0 0,7 -7,0 z M 7,133 l 7,0 0,7 -7,0 z M 14,133 l 7,0 0,7 -7,0 z M 28,133 l 7,0 0,7 -7,0 z M 56,133 l 7,0 0,7 -7,0 z M 70,133 l 7,0 0,7 -7,0 z M 84,133 l 7,0 0,7 -7,0 z M 98,133 l 7,0 0,7 -7,0 z M 112,133 l 7,0 0,7 -7,0 z M 126,133 l 7,0 0,7 -7,0 z M 133,133 l 7,0 0,7 -7,0 z M 147,133 l 7,0 0,7 -7,0 z M 154,133 l 7,0 0,7 -7,0 z M 161,133 l 7,0 0,7 -7,0 z M 168,133 l 7,0 0,7 -7,0 z M 182,133 l 7,0 0,7 -7,0 z M 203,133 l 7,0 0,7 -7,0 z M 210,133 l 7,0 0,7 -7,0 z M 224,133 l 7,0 0,7 -7,0 z M 7,140 l 7,0 0,7 -7,0 z M 14,140 l 7,0 0,7 -7,0 z M 21,140 l 7,0 0,7 -7,0 z M 42,140 l 7,0 0,7 -7,0 z M 63,140 l 7,0 0,7 -7,0 z M 70,140 l 7,0 0,7 -7,0 z M 91,140 l 7,0 0,7 -7,0 z M 98,140 l 7,0 0,7 -7,0 z M 105,140 l 7,0 0,7 -7,0 z M 119,140 l 7,0 0,7 -7,0 z M 154,140 l 7,0 0,7 -7,0 z M 175,140 l 7,0 0,7 -7,0 z M 182,140 l 7,0 0,7 -7,0 z M 189,140 l 7,0 0,7 -7,0 z M 196,140 l 7,0 0,7 -7,0 z M 203,140 l 7,0 0,7 -7,0 z M 217,140 l 7,0 0,7 -7,0 z M 224,140 l 7,0 0,7 -7,0 z M 0,147 l 7,0 0,7 -7,0 z M 21,147 l 7,0 0,7 -7,0 z M 28,147 l 7,0 0,7 -7,0 z M 35,147 l 7,0 0,7 -7,0 z M 49,147 l 7,0 0,7 -7,0 z M 77,147 l 7,0 0,7 -7,0 z M 84,147 l 7,0 0,7 -7,0 z M 126,147 l 7,0 0,7 -7,0 z M 140,147 l 7,0 0,7 -7,0 z M 154,147 l 7,0 0,7 -7,0 z M 168,147 l 7,0 0,7 -7,0 z M 203,147 l 7,0 0,7 -7,0 z M 224,147 l 7,0 0,7 -7,0 z M 0,154 l 7,0 0,7 -7,0 z M 14,154 l 7,0 0,7 -7,0 z M 28,154 l 7,0 0,7 -7,0 z M 35,154 l 7,0 0,7 -7,0 z M 42,154 l 7,0 0,7 -7,0 z M 49,154 l 7,0 0,7 -7,0 z M 56,154 l 7,0 0,7 -7,0 z M 70,154 l 7,0 0,7 -7,0 z M 84,154 l 7,0 0,7 -7,0 z M 91,154 l 7,0 0,7 -7,0 z M 98,154 l 7,0 0,7 -7,0 z M 112,154 l 7,0 0,7 -7,0 z M 119,154 l 7,0 0,7 -7,0 z M 140,154 l 7,0 0,7 -7,0 z M 154,154 l 7,0 0,7 -7,0 z M 203,154 l 7,0 0,7 -7,0 z M 217,154 l 7,0 0,7 -7,0 z M 0,161 l 7,0 0,7 -7,0 z M 14,161 l 7,0 0,7 -7,0 z M 35,161 l 7,0 0,7 -7,0 z M 49,161 l 7,0 0,7 -7,0 z M 63,161 l 7,0 0,7 -7,0 z M 70,161 l 7,0 0,7 -7,0 z M 91,161 l 7,0 0,7 -7,0 z M 133,161 l 7,0 0,7 -7,0 z M 140,161 l 7,0 0,7 -7,0 z M 147,161 l 7,0 0,7 -7,0 z M 154,161 l 7,0 0,7 -7,0 z M 168,161 l 7,0 0,7 -7,0 z M 196,161 l 7,0 0,7 -7,0 z M 210,161 l 7,0 0,7 -7,0 z M 224,161 l 7,0 0,7 -7,0 z M 0,168 l 7,0 0,7 -7,0 z M 21,168 l 7,0 0,7 -7,0 z M 28,168 l 7,0 0,7 -7,0 z M 35,168 l 7,0 0,7 -7,0 z M 42,168 l 7,0 0,7 -7,0 z M 56,168 l 7,0 0,7 -7,0 z M 70,168 l 7,0 0,7 -7,0 z M 98,168 l 7,0 0,7 -7,0 z M 105,168 l 7,0 0,7 -7,0 z M 119,168 l 7,0 0,7 -7,0 z M 126,168 l 7,0 0,7 -7,0 z M 147,168 l 7,0 0,7 -7,0 z M 168,168 l 7,0 0,7 -7,0 z M 175,168 l 7,0 0,7 -7,0 z M 182,168 l 7,0 0,7 -7,0 z M 189,168 l 7,0 0,7 -7,0 z M 196,168 l 7,0 0,7 -7,0 z M 56,175 l 7,0 0,7 -7,0 z M 63,175 l 7,0 0,7 -7,0 z M 70,175 l 7,0 0,7 -7,0 z M 77,175 l 7,0 0,7 -7,0 z M 84,175 l 7,0 0,7 -7,0 z M 98,175 l 7,0 0,7 -7,0 z M 112,175 l 7,0 0,7 -7,0 z M 133,175 l 7,0 0,7 -7,0 z M 140,175 l 7,0 0,7 -7,0 z M 168,175 l 7,0 0,7 -7,0 z M 196,175 l 7,0 0,7 -7,0 z M 203,175 l 7,0 0,7 -7,0 z M 224,175 l 7,0 0,7 -7,0 z M 0,182 l 7,0 0,7 -7,0 z M 7,182 l 7,0 0,7 -7,0 z M 14,182 l 7,0 0,7 -7,0 z M 21,182 l 7,0 0,7 -7,0 z M 28,182 l 7,0 0,7 -7,0 z M 35,182 l 7,0 0,7 -7,0 z M 42,182 l 7,0 0,7 -7,0 z M 91,182 l 7,0 0,7 -7,0 z M 98,182 l 7,0 0,7 -7,0 z M 126,182 l 7,0 0,7 -7,0 z M 133,182 l 7,0 0,7 -7,0 z M 154,182 l 7,0 0,7 -7,0 z M 161,182 l 7,0 0,7 -7,0 z M 168,182 l 7,0 0,7 -7,0 z M 182,182 l 7,0 0,7 -7,0 z M 196,182 l 7,0 0,7 -7,0 z M 203,182 l 7,0 0,7 -7,0 z M 217,182 l 7,0 0,7 -7,0 z M 0,189 l 7,0 0,7 -7,0 z M 42,189 l 7,0 0,7 -7,0 z M 63,189 l 7,0 0,7 -7,0 z M 70,189 l 7,0 0,7 -7,0 z M 84,189 l 7,0 0,7 -7,0 z M 91,189 l 7,0 0,7 -7,0 z M 105,189 l 7,0 0,7 -7,0 z M 112,189 l 7,0 0,7 -7,0 z M 161,189 l 7,0 0,7 -7,0 z M 168,189 l 7,0 0,7 -7,0 z M 196,189 l 7,0 0,7 -7,0 z M 203,189 l 7,0 0,7 -7,0 z M 210,189 l 7,0 0,7 -7,0 z M 217,189 l 7,0 0,7 -7,0 z M 224,189 l 7,0 0,7 -7,0 z M 0,196 l 7,0 0,7 -7,0 z M 14,196 l 7,0 0,7 -7,0 z M 21,196 l 7,0 0,7 -7,0 z M 28,196 l 7,0 0,7 -7,0 z M 42,196 l 7,0 0,7 -7,0 z M 56,196 l 7,0 0,7 -7,0 z M 63,196 l 7,0 0,7 -7,0 z M 70,196 l 7,0 0,7 -7,0 z M 91,196 l 7,0 0,7 -7,0 z M 98,196 l 7,0 0,7 -7,0 z M 133,196 l 7,0 0,7 -7,0 z M 147,196 l 7,0 0,7 -7,0 z M 154,196 l 7,0 0,7 -7,0 z M 168,196 l 7,0 0,7 -7,0 z M 175,196 l 7,0 0,7 -7,0 z M 182,196 l 7,0 0,7 -7,0 z M 189,196 l 7,0 0,7 -7,0 z M 196,196 l 7,0 0,7 -7,0 z M 203,196 l 7,0 0,7 -7,0 z M 217,196 l 7,0 0,7 -7,0 z M 224,196 l 7,0 0,7 -7,0 z M 0,203 l 7,0 0,7 -7,0 z M 14,203 l 7,0 0,7 -7,0 z M 21,203 l 7,0 0,7 -7,0 z M 28,203 l 7,0 0,7 -7,0 z M 42,203 l 7,0 0,7 -7,0 z M 56,203 l 7,0 0,7 -7,0 z M 77,203 l 7,0 0,7 -7,0 z M 119,203 l 7,0 0,7 -7,0 z M 140,203 l 7,0 0,7 -7,0 z M 161,203 l 7,0 0,7 -7,0 z M 168,203 l 7,0 0,7 -7,0 z M 175,203 l 7,0 0,7 -7,0 z M 196,203 l 7,0 0,7 -7,0 z M 203,203 l 7,0 0,7 -7,0 z M 217,203 l 7,0 0,7 -7,0 z M 0,210 l 7,0 0,7 -7,0 z M 14,210 l 7,0 0,7 -7,0 z M 21,210 l 7,0 0,7 -7,0 z M 28,210 l 7,0 0,7 -7,0 z M 42,210 l 7,0 0,7 -7,0 z M 56,210 l 7,0 0,7 -7,0 z M 63,210 l 7,0 0,7 -7,0 z M 77,210 l 7,0 0,7 -7,0 z M 84,210 l 7,0 0,7 -7,0 z M 98,210 l 7,0 0,7 -7,0 z M 119,210 l 7,0 0,7 -7,0 z M 133,210 l 7,0 0,7 -7,0 z M 140,210 l 7,0 0,7 -7,0 z M 147,210 l 7,0 0,7 -7,0 z M 154,210 l 7,0 0,7 -7,0 z M 168,210 l 7,0 0,7 -7,0 z M 175,210 l 7,0 0,7 -7,0 z M 182,210 l 7,0 0,7 -7,0 z M 0,217 l 7,0 0,7 -7,0 z M 42,217 l 7,0 0,7 -7,0 z M 77,217 l 7,0 0,7 -7,0 z M 91,217 l 7,0 0,7 -7,0 z M 98,217 l 7,0 0,7 -7,0 z M 140,217 l 7,0 0,7 -7,0 z M 147,217 l 7,0 0,7 -7,0 z M 161,217 l 7,0 0,7 -7,0 z M 175,217 l 7,0 0,7 -7,0 z M 182,217 l 7,0 0,7 -7,0 z M 189,217 l 7,0 0,7 -7,0 z M 203,217 l 7,0 0,7 -7,0 z M 0,224 l 7,0 0,7 -7,0 z M 7,224 l 7,0 0,7 -7,0 z M 14,224 l 7,0 0,7 -7,0 z M 21,224 l 7,0 0,7 -7,0 z M 28,224 l 7,0 0,7 -7,0 z M 35,224 l 7,0 0,7 -7,0 z M 42,224 l 7,0 0,7 -7,0 z M 70,224 l 7,0 0,7 -7,0 z M 84,224 l 7,0 0,7 -7,0 z M 105,224 l 7,0 0,7 -7,0 z M 119,224 l 7,0 0,7 -7,0 z M 126,224 l 7,0 0,7 -7,0 z M 140,224 l 7,0 0,7 -7,0 z M 147,224 l 7,0 0,7 -7,0 z M 161,224 l 7,0 0,7 -7,0 z M 168,224 l 7,0 0,7 -7,0 z M 175,224 l 7,0 0,7 -7,0 z M 182,224 l 7,0 0,7 -7,0 z M 210,224 l 7,0 0,7 -7,0 z M 217,224 l 7,0 0,7 -7,0 z " />
	</g>
</svg>
