<?xml version="1.0" encoding="UTF-8" standalone="no"?>
<!-- Generator: Adobe Illustrator 19.0.0, SVG Export Plug-In . SVG Version: 6.00 Build 0)  -->

<svg
   xmlns:dc="http://purl.org/dc/elements/1.1/"
   xmlns:cc="http://creativecommons.org/ns#"
   xmlns:rdf="http://www.w3.org/1999/02/22-rdf-syntax-ns#"
   xmlns:svg="http://www.w3.org/2000/svg"
   xmlns="http://www.w3.org/2000/svg"
   xmlns:sodipodi="http://sodipodi.sourceforge.net/DTD/sodipodi-0.dtd"
   xmlns:inkscape="http://www.inkscape.org/namespaces/inkscape"
   version="1.1"
   id="Capa_1"
   x="0px"
   y="0px"
   viewBox="0 0 512 512"
   style="enable-background:new 0 0 512 512;"
   xml:space="preserve"
   sodipodi:docname="dn-t-logo.svg"
   inkscape:version="0.92.4 (5da689c313, 2019-01-14)"><metadata
   id="metadata942"><rdf:RDF><cc:Work
       rdf:about=""><dc:format>image/svg+xml</dc:format><dc:type
         rdf:resource="http://purl.org/dc/dcmitype/StillImage" /></cc:Work></rdf:RDF></metadata><defs
   id="defs940" /><sodipodi:namedview
   pagecolor="#ffffff"
   bordercolor="#666666"
   borderopacity="1"
   objecttolerance="10"
   gridtolerance="10"
   guidetolerance="10"
   inkscape:pageopacity="0"
   inkscape:pageshadow="2"
   inkscape:window-width="1280"
   inkscape:window-height="756"
   id="namedview938"
   showgrid="false"
   inkscape:zoom="0.7623495"
   inkscape:cx="256"
   inkscape:cy="258.59097"
   inkscape:window-x="0"
   inkscape:window-y="0"
   inkscape:window-maximized="0"
   inkscape:current-layer="text5872" />
<g
   id="g905"
   transform="matrix(0.70819643,0,0,0.70819643,69.600265,44.569297)">
	<g
   id="g903">
		<g
   id="g901">
			<path
   d="m 146,263 c 0,60.654 49.346,110 110,110 60.654,0 110,-49.346 110,-110 0,-60.654 -49.346,-110 -110,-110 -60.654,0 -110,49.346 -110,110 z m 180,0 c 0,38.598 -31.402,70 -70,70 -12.04,0 -23.378,-3.057 -33.283,-8.433 l 94.85,-94.851 C 322.943,239.621 326,250.96 326,263 Z M 194.433,296.284 C 189.057,286.379 186,275.04 186,263 c 0,-38.598 31.402,-70 70,-70 12.04,0 23.378,3.057 33.283,8.433 z"
   id="path897"
   inkscape:connector-curvature="0" />
			<path
   d="m 468.04,91.688 -205,-90 c -5.147,-2.26 -11.007,-2.25 -16.146,0.029 l -203,90 C 36.663,94.923 32,102.09 32,110 v 158 c 0,59.712 23.597,120.752 64.741,167.468 20.695,23.497 44.553,42.091 70.912,55.265 C 195.887,504.845 225.611,512 256,512 c 42.552,0 83.967,-13.772 119.769,-39.83 8.931,-6.5 10.902,-19.008 4.402,-27.939 -6.5,-8.931 -19.009,-10.9 -27.94,-4.402 C 323.313,460.876 290.037,472 256,472 159.701,472 72,374.767 72,268 V 123.011 L 255.04,41.86 440,123.063 V 268 c 0,36.829 -10.58,74.1 -30.597,107.784 -5.643,9.495 -2.52,21.767 6.976,27.41 9.497,5.641 21.768,2.519 27.411,-6.977 C 467.479,356.354 480,312.018 480,268 V 110 c 0,-7.936 -4.693,-15.122 -11.96,-18.312 z"
   id="path899"
   inkscape:connector-curvature="0" />
		</g>
	</g>
</g>
<g
   id="g907">
</g>
<g
   id="g909">
</g>
<g
   id="g911">
</g>
<g
   id="g913">
</g>
<g
   id="g915">
</g>
<g
   id="g917">
</g>
<g
   id="g919">
</g>
<g
   id="g921">
</g>
<g
   id="g923">
</g>
<g
   id="g925">
</g>
<g
   id="g927">
</g>
<g
   id="g929">
</g>
<g
   id="g931">
</g>
<g
   id="g933">
</g>
<g
   id="g935">
</g>
<g
   aria-label="do!not/track"
   style="font-style:normal;font-variant:normal;font-weight:normal;font-stretch:normal;font-size:70.45389557px;line-height:125%;font-family:Courier;-inkscape-font-specification:Courier;letter-spacing:0px;word-spacing:0px;fill:#000000;fill-opacity:1;stroke:none;stroke-width:1.76134741px;stroke-linecap:butt;stroke-linejoin:miter;stroke-opacity:1"
   id="text5872"><path
     d="m 33.878782,475.42419 q -0.722427,0 -1.032039,-0.34401 -0.275211,-0.37841 -0.275211,-1.41045 v -2.82091 q -2.064079,2.5801 -5.160197,4.02495 -3.096119,1.41046 -6.708257,1.41046 -6.501849,0 -10.9052171,-4.60978 -4.3689671,-4.64418 -4.3689671,-11.52444 0,-7.12107 4.6785792,-11.83405 4.678579,-4.74738 11.662046,-4.74738 3.543336,0 6.364243,1.27284 2.820908,1.23845 4.850586,3.68095 v -13.17571 h -1.82327 q -2.992914,0 -3.887348,-0.51602 -0.860033,-0.55042 -0.860033,-1.96087 0,-1.23845 0.688026,-1.85767 0.722428,-0.61923 2.064079,-0.61923 h 7.05227 q 1.032039,0 1.479256,0.34401 0.481619,0.34402 0.481619,1.06645 v 38.77028 h 1.548059 q 1.685665,0 2.442493,0.58482 0.756829,0.55042 0.756829,1.78887 0,1.16964 -0.653625,1.82327 -0.653625,0.65362 -1.754467,0.65362 z M 11.34592,459.978 q 0,4.74738 3.061717,7.7747 3.061717,3.02732 7.774698,3.02732 4.747381,0 7.809099,-3.13052 3.061717,-3.16492 3.061717,-8.01551 0,-4.78178 -3.061717,-7.8779 -3.027316,-3.09612 -7.809099,-3.09612 -4.850586,0 -7.8435,3.13052 -2.992915,3.13052 -2.992915,8.18751 z"
     style="stroke-width:1.76134741px"
     id="path1106" /><path
     d="m 65.768802,471.46804 q 5.297803,0 8.669132,-3.33692 3.40573,-3.37133 3.40573,-8.56593 0,-5.1946 -3.40573,-8.56593 -3.405731,-3.40573 -8.669132,-3.40573 -5.263401,0 -8.669132,3.40573 -3.371329,3.37133 -3.371329,8.56593 0,5.229 3.371329,8.56593 3.371329,3.33692 8.669132,3.33692 z m 18.060691,-11.90285 q 0,7.36188 -5.022592,12.04046 -5.022592,4.67858 -13.038099,4.67858 -7.981105,0 -13.003698,-4.67858 -5.022592,-4.67858 -5.022592,-12.04046 0,-7.36188 5.022592,-12.00606 5.022593,-4.67858 13.003698,-4.67858 7.981105,0 13.003697,4.67858 5.056994,4.67858 5.056994,12.00606 z"
     style="stroke-width:1.76134741px"
     id="path1108" /><path
     d="m 112.03857,436.96352 -1.20404,22.32646 q -0.0344,1.13524 -0.82564,1.89207 -0.79123,0.72243 -1.99527,0.72243 -1.16965,0 -1.96088,-0.72243 -0.79123,-0.75683 -0.86003,-1.89207 l -1.16964,-22.32646 v -0.34401 q 0,-1.99528 1.06644,-3.13052 1.06644,-1.16964 2.92411,-1.16964 1.89207,0 2.95851,1.16964 1.06644,1.13524 1.06644,3.13052 z m -10.4236,33.74769 q 0,-2.40809 1.75447,-3.92175 1.78887,-1.51365 4.64418,-1.51365 2.88971,0 4.64418,1.51365 1.78886,1.51366 1.78886,3.92175 0,2.4425 -1.78886,3.99056 -1.75447,1.51365 -4.64418,1.51365 -2.85531,0 -4.64418,-1.54805 -1.75447,-1.54806 -1.75447,-3.95616 z"
     style="stroke-width:1.76134741px"
     id="path1110" /><path
     d="m 137.46115,470.57361 v -22.05124 h -0.65363 q -2.33929,0 -3.23372,-0.55043 -0.86003,-0.55042 -0.86003,-1.92647 0,-1.27285 0.72242,-1.82327 0.72243,-0.58482 2.33929,-0.58482 h 1.61687 3.30252 q 0.92884,0 1.44486,0.37841 0.51602,0.37842 0.51602,1.03204 v 2.33929 q 2.51129,-2.33929 4.95379,-3.44013 2.47689,-1.13524 5.12579,-1.13524 5.1946,0 8.15311,3.23372 2.99292,3.23372 2.99292,8.94434 v 15.5838 h 1.61686 q 1.72007,0 2.4769,0.58482 0.75682,0.55042 0.75682,1.78887 0,1.34165 -0.82563,1.92647 -0.79123,0.55042 -2.85531,0.55042 h -7.60269 q -2.20168,0 -2.82091,-0.51602 -0.61922,-0.51602 -0.61922,-1.96087 0,-1.34165 0.72243,-1.85767 0.72243,-0.51602 2.7177,-0.51602 h 1.20405 v -14.31095 q 0,-4.02495 -1.82327,-6.12343 -1.82327,-2.13288 -5.2978,-2.13288 -3.50894,0 -6.19224,2.37369 -2.6833,2.37369 -2.6833,5.88262 v 14.31095 h 1.20404 q 2.06408,0 2.78651,0.51602 0.72243,0.51602 0.72243,1.85767 0,1.44485 -0.61923,1.96087 -0.61922,0.51602 -3.02731,0.51602 h -6.26104 -1.85767 q -1.41046,0 -2.13288,-0.58482 -0.68803,-0.61922 -0.68803,-1.89207 0,-1.37605 0.79123,-1.85767 0.82563,-0.51602 3.16492,-0.51602 z"
     style="stroke-width:1.76134741px"
     id="path1112" /><path
     d="m 192.50325,471.46804 q 5.2978,0 8.66913,-3.33692 3.40573,-3.37133 3.40573,-8.56593 0,-5.1946 -3.40573,-8.56593 -3.40573,-3.40573 -8.66913,-3.40573 -5.2634,0 -8.66913,3.40573 -3.37133,3.37133 -3.37133,8.56593 0,5.229 3.37133,8.56593 3.37133,3.33692 8.66913,3.33692 z m 18.06069,-11.90285 q 0,7.36188 -5.02259,12.04046 -5.02259,4.67858 -13.0381,4.67858 -7.98111,0 -13.0037,-4.67858 -5.02259,-4.67858 -5.02259,-12.04046 0,-7.36188 5.02259,-12.00606 5.02259,-4.67858 13.0037,-4.67858 7.9811,0 13.0037,4.67858 5.05699,4.67858 5.05699,12.00606 z"
     style="stroke-width:1.76134741px"
     id="path1114" /><path
     d="m 244.13962,445.56385 q 1.68567,0 2.44249,0.58482 0.79123,0.58483 0.79123,1.85768 0,1.20404 -0.72242,1.82327 -0.72243,0.58482 -2.16729,0.58482 H 230.5511 v 11.49004 q 0,5.64181 1.44486,7.43068 1.47925,1.78887 5.02259,1.78887 3.13052,0 7.49949,-1.82327 4.36896,-1.82327 5.401,-1.82327 0.96324,0 1.61686,0.68803 0.68803,0.68802 0.68803,1.68566 0,1.13524 -0.86003,1.99528 -0.82563,0.82563 -2.85531,1.61686 -3.37133,1.34165 -6.08904,1.96087 -2.6833,0.61923 -5.05699,0.61923 -4.02495,0 -6.77706,-1.27285 -2.7177,-1.30725 -4.05935,-3.85295 -0.68803,-1.20404 -0.99764,-2.85531 -0.27521,-1.65126 -0.27521,-5.09139 v -1.06644 -11.49004 h -5.84823 q -1.44485,0 -2.09848,-0.55042 -0.65362,-0.58483 -0.65362,-1.85767 0,-1.41046 0.89443,-1.92648 0.89444,-0.51602 3.81855,-0.51602 h 3.88735 v -7.05227 -1.82327 q 0,-1.47925 0.61922,-2.16728 0.65363,-0.72243 1.99528,-0.72243 1.51366,0 2.09848,0.86003 0.58482,0.86004 0.58482,3.92175 v 6.98347 z"
     style="stroke-width:1.76134741px"
     id="path1116" /><path
     d="m 269.25259,476.35303 q -0.75683,1.72007 -1.44485,2.33929 -0.65363,0.61922 -1.58246,0.61922 -0.96324,0 -1.68567,-0.72242 -0.72243,-0.68803 -0.72243,-1.68567 0,-0.27521 0.10321,-0.65362 0.1032,-0.34402 0.27521,-0.75683 l 21.46642,-46.26977 q 0.86003,-1.78887 1.51366,-2.4081 0.65362,-0.65362 1.58246,-0.65362 1.03204,0 1.75447,0.68803 0.72242,0.68802 0.72242,1.65126 0,0.27521 -0.1032,0.61922 -0.0688,0.34402 -0.24081,0.65363 z"
     style="stroke-width:1.76134741px"
     id="path1118" /><path
     d="m 328.62926,445.56385 q 1.68566,0 2.44249,0.58482 0.79123,0.58483 0.79123,1.85768 0,1.20404 -0.72242,1.82327 -0.72243,0.58482 -2.16729,0.58482 h -13.93253 v 11.49004 q 0,5.64181 1.44486,7.43068 1.47925,1.78887 5.02259,1.78887 3.13052,0 7.49948,-1.82327 4.36897,-1.82327 5.40101,-1.82327 0.96324,0 1.61686,0.68803 0.68803,0.68802 0.68803,1.68566 0,1.13524 -0.86003,1.99528 -0.82564,0.82563 -2.85531,1.61686 -3.37133,1.34165 -6.08904,1.96087 -2.6833,0.61923 -5.05699,0.61923 -4.02495,0 -6.77706,-1.27285 -2.7177,-1.30725 -4.05935,-3.85295 -0.68803,-1.20404 -0.99764,-2.85531 -0.27521,-1.65126 -0.27521,-5.09139 v -1.06644 -11.49004 h -5.84823 q -1.44485,0 -2.09848,-0.55042 -0.65362,-0.58483 -0.65362,-1.85767 0,-1.41046 0.89443,-1.92648 0.89444,-0.51602 3.81855,-0.51602 h 3.88735 v -7.05227 -1.82327 q 0,-1.47925 0.61922,-2.16728 0.65363,-0.72243 1.99528,-0.72243 1.51366,0 2.09848,0.86003 0.58482,0.86004 0.58482,3.92175 v 6.98347 z"
     style="stroke-width:1.76134741px"
     id="path1120" /><path
     d="m 358.11118,470.57361 h 11.42124 q 1.34165,0 1.96088,0.58482 0.65362,0.55042 0.65362,1.78887 0,1.41045 -0.61922,1.96087 -0.58483,0.51602 -2.20169,0.51602 h -22.49846 q -1.34165,0 -2.02968,-0.61922 -0.68802,-0.61922 -0.68802,-1.85767 0,-1.20405 0.68802,-1.78887 0.72243,-0.58482 2.20169,-0.58482 h 5.98583 v -22.05124 h -2.33929 q -3.33693,0 -4.16256,-0.51602 -0.82563,-0.55043 -0.82563,-1.96088 0,-1.20405 0.65362,-1.78887 0.68803,-0.61922 2.06408,-0.61922 h 7.8435 q 0.92884,0 1.41046,0.37841 0.48161,0.34402 0.48161,1.03204 v 5.84823 q 3.26813,-4.09376 6.81146,-6.08904 3.54334,-1.99527 7.6371,-1.99527 3.06171,0 4.95379,1.23844 1.89207,1.23845 1.89207,3.19933 0,1.27285 -0.96324,2.27048 -0.92883,0.96324 -2.06408,0.96324 -0.79123,0 -2.6833,-1.03204 -1.85767,-1.06644 -3.33693,-1.06644 -2.6833,0 -5.67621,1.92647 -2.95852,1.89208 -6.57066,6.02023 z"
     style="stroke-width:1.76134741px"
     id="path1122" /><path
     d="m 411.36442,460.21881 q -1.89208,-0.61922 -3.68094,-0.89443 -1.75447,-0.30961 -3.50894,-0.30961 -5.2978,0 -8.35952,1.78886 -3.06172,1.78887 -3.06172,4.81619 0,2.33929 1.89208,3.85295 1.92647,1.51365 4.88498,1.51365 4.36897,0 8.08431,-2.27048 3.74975,-2.30489 3.74975,-4.78179 z m 0.27521,10.83642 q -2.82091,2.54569 -6.15784,3.88735 -3.30252,1.34165 -6.81146,1.34165 -5.12579,0 -8.29072,-2.85531 -3.13052,-2.85531 -3.13052,-7.43069 0,-5.4354 4.16256,-8.42832 4.19696,-2.99291 11.76525,-2.99291 1.99528,0 4.02496,0.27521 2.02968,0.24081 4.16256,0.79123 v -0.24081 q 0,-3.95615 -1.89208,-5.84823 -1.89207,-1.89207 -5.88262,-1.89207 -2.6833,0 -5.98583,1.44486 -3.30253,1.44485 -4.36897,1.44485 -0.99763,0 -1.65126,-0.79123 -0.65362,-0.82563 -0.65362,-2.09848 0,-2.02968 3.78414,-3.44013 3.81855,-1.41045 9.73557,-1.41045 6.05463,0 9.15075,3.09612 3.09612,3.06171 3.09612,9.08194 v 15.5838 h 1.68567 q 2.44249,0 3.26812,0.51602 0.82563,0.51602 0.82563,1.85767 0,1.23845 -0.68802,1.85767 -0.68803,0.61922 -2.06408,0.61922 h -5.40101 q -0.96324,0 -1.58246,-0.58482 -0.61922,-0.58482 -0.82563,-1.68566 z"
     style="stroke-width:1.76134741px"
     id="path1124" /><path
     d="m 456.32693,445.70146 v -0.13761 q 0,-1.13524 0.65363,-1.65126 0.65362,-0.55042 2.02968,-0.55042 1.41045,0 1.92647,0.82563 0.55042,0.82563 0.55042,3.40573 v 6.39864 q 0,1.27285 -0.65362,1.92648 -0.65363,0.61922 -1.96088,0.61922 -0.92884,0 -1.61686,-0.51602 -0.65363,-0.55042 -1.61686,-2.23608 -1.65127,-2.78651 -4.02496,-4.19696 -2.33929,-1.44486 -5.401,-1.44486 -5.36661,0 -8.73794,3.16492 -3.33693,3.16492 -3.33693,8.18751 0,5.1258 3.19933,8.39393 3.23372,3.23372 8.29071,3.23372 2.30489,0 4.36897,-0.61922 2.09848,-0.65363 3.95615,-1.92648 0.65363,-0.41281 1.75447,-1.27285 2.23608,-1.82327 3.50893,-1.82327 1.06644,0 1.72007,0.68803 0.68803,0.65363 0.68803,1.72007 0,2.7177 -5.1602,5.57301 -5.1258,2.82091 -10.90522,2.82091 -7.46508,0 -12.45328,-4.78179 -4.95379,-4.78178 -4.95379,-11.93725 0,-7.15548 4.95379,-11.93726 4.95379,-4.81618 12.38448,-4.81618 2.6145,0 5.229,0.72242 2.6489,0.68803 5.60741,2.16729 z"
     style="stroke-width:1.76134741px"
     id="path1126" /><path
     d="m 481.95591,462.24849 v 10.14839 q 0,1.37605 -0.58482,2.20168 -0.55042,0.82563 -1.44486,0.82563 h -6.36424 q -1.34165,0 -2.02968,-0.61922 -0.68803,-0.61922 -0.68803,-1.85767 0,-1.37605 0.79123,-1.85767 0.82564,-0.51602 3.47454,-0.51602 h 1.65126 v -35.22695 h -1.41045 q -2.95852,0 -3.81855,-0.51602 -0.86003,-0.55042 -0.86003,-1.96087 0,-1.23845 0.68802,-1.85767 0.72243,-0.61923 2.06408,-0.61923 h 6.57065 q 0.92884,0 1.44486,0.37842 0.51602,0.37841 0.51602,1.03204 v 24.66574 l 9.94198,-8.32512 q -1.13524,-0.48162 -1.68566,-1.06644 -0.51602,-0.58482 -0.51602,-1.37605 0,-1.03204 0.75682,-1.54806 0.75683,-0.51602 2.20169,-0.51602 h 9.32276 q 1.30725,0 1.99527,0.58482 0.68803,0.58482 0.68803,1.75447 0,2.06408 -3.33693,2.40809 -0.65362,0.0688 -1.03204,0.13761 -1.41045,0.172 -3.09612,1.10084 -1.68566,0.89443 -3.40573,2.40809 l -4.98819,4.36897 13.0381,14.17334 h 2.95851 q 1.47926,0 2.09848,0.55042 0.65363,0.55042 0.65363,1.82327 0,1.20405 -0.72243,1.85767 -0.68803,0.61922 -2.02968,0.61922 h -9.32275 q -1.51366,0 -2.20169,-0.51602 -0.68802,-0.51602 -0.68802,-1.65126 0,-0.92883 0.65362,-1.58246 0.68803,-0.68803 2.02968,-1.10084 l -10.21719,-11.14603 z"
     style="stroke-width:1.76134741px"
     id="path1128" /></g>
</svg>